<svg width="106" height="13" viewBox="0 0 106 13" fill="none" xmlns="http://www.w3.org/2000/svg">
<path d="M61.9428 9.112H63.1548L63.5508 8.116L60.4548 1.624H61.5468L63.3588 5.44L63.9828 6.892H64.0428L64.5708 5.416L66.0828 1.624H67.1148L64.1868 8.932C64.0988 9.148 64.0108 9.328 63.9228 9.472C63.8348 9.608 63.7308 9.716 63.6108 9.796C63.4908 9.868 63.3468 9.92 63.1788 9.952C63.0188 9.984 62.8268 10 62.6028 10H61.9428V9.112ZM66.6741 9.16H67.3821C67.6301 8.76 67.8301 8.26 67.9821 7.66C68.1341 7.06 68.2101 6.372 68.2101 5.596V3.808H72.3981V9.16H73.4301V11.68H72.5541V10H67.5501V11.68H66.6741V9.16ZM71.4381 9.16V4.648H69.1221V5.644C69.1221 6.468 69.0501 7.172 68.9061 7.756C68.7701 8.332 68.6061 8.8 68.4141 9.16H71.4381ZM79.2583 10C78.8983 10 78.6383 9.904 78.4783 9.712C78.3263 9.52 78.2303 9.28 78.1903 8.992H78.1303C77.9943 9.376 77.7703 9.664 77.4583 9.856C77.1463 10.048 76.7743 10.144 76.3423 10.144C75.6863 10.144 75.1743 9.976 74.8063 9.64C74.4463 9.304 74.2663 8.848 74.2663 8.272C74.2663 7.688 74.4783 7.24 74.9023 6.928C75.3343 6.616 76.0023 6.46 76.9063 6.46H78.1303V5.848C78.1303 5.408 78.0103 5.072 77.7703 4.84C77.5303 4.608 77.1623 4.492 76.6663 4.492C76.2903 4.492 75.9743 4.576 75.7183 4.744C75.4703 4.912 75.2623 5.136 75.0943 5.416L74.5183 4.876C74.6863 4.54 74.9543 4.256 75.3223 4.024C75.6903 3.784 76.1543 3.664 76.7143 3.664C77.4663 3.664 78.0503 3.848 78.4663 4.216C78.8823 4.584 79.0903 5.096 79.0903 5.752V9.16H79.7983V10H79.2583ZM76.4983 9.328C76.7383 9.328 76.9583 9.3 77.1583 9.244C77.3583 9.188 77.5303 9.108 77.6743 9.004C77.8183 8.9 77.9303 8.78 78.0103 8.644C78.0903 8.508 78.1303 8.36 78.1303 8.2V7.18H76.8583C76.3063 7.18 75.9023 7.26 75.6463 7.42C75.3983 7.58 75.2743 7.812 75.2743 8.116V8.368C75.2743 8.672 75.3823 8.908 75.5983 9.076C75.8223 9.244 76.1223 9.328 76.4983 9.328ZM80.3616 9.16H81.1776C81.2816 9.016 81.3736 8.844 81.4536 8.644C81.5336 8.444 81.6016 8.204 81.6576 7.924C81.7136 7.644 81.7576 7.312 81.7896 6.928C81.8216 6.544 81.8376 6.092 81.8376 5.572V3.808H86.0256V10H85.0656V4.648H82.7496V5.596C82.7496 6.196 82.7256 6.72 82.6776 7.168C82.6376 7.616 82.5776 8 82.4976 8.32C82.4256 8.64 82.3376 8.904 82.2336 9.112C82.1296 9.312 82.0176 9.472 81.8976 9.592C81.7456 9.744 81.5776 9.852 81.3936 9.916C81.2096 9.972 80.9896 10 80.7336 10H80.3616V9.16ZM88.0708 3.808H89.0068V7.24L88.9108 8.728H88.9588L89.7268 7.408L92.1988 3.808H93.0868V10H92.1508V6.568L92.2468 5.08H92.1988L91.4308 6.4L88.9588 10H88.0708V3.808ZM96.4575 4.648H94.3455V3.808H99.5295V4.648H97.4175V10H96.4575V4.648ZM100.786 3.808H101.746V6.052H103.51C104.134 6.052 104.63 6.228 104.998 6.58C105.366 6.932 105.55 7.416 105.55 8.032C105.55 8.656 105.37 9.14 105.01 9.484C104.65 9.828 104.154 10 103.522 10H100.786V3.808ZM103.378 9.16C103.738 9.16 104.018 9.092 104.218 8.956C104.418 8.82 104.518 8.592 104.518 8.272V7.768C104.518 7.448 104.418 7.224 104.218 7.096C104.018 6.96 103.738 6.892 103.378 6.892H101.746V9.16H103.378Z" fill="#8C8C8C"/>
<path d="M60.2148 11.5H106.006V12.22H60.2148V11.5Z" fill="#8C8C8C"/>
</svg>
