<svg width="10" height="10" viewBox="0 0 10 10" fill="none" xmlns="http://www.w3.org/2000/svg">
<path fill-rule="evenodd" clip-rule="evenodd" d="M8.56911 1.90229C8.69924 1.77211 8.69924 1.56106 8.56911 1.43089C8.43891 1.30071 8.22784 1.30071 8.09764 1.43089L5.00004 4.52851L1.90241 1.43089C1.77224 1.30071 1.56118 1.30071 1.43101 1.43089C1.30083 1.56106 1.30083 1.77211 1.43101 1.90229L4.52864 4.99992L1.43101 8.09752C1.30083 8.22772 1.30083 8.43879 1.43101 8.56899C1.56118 8.69912 1.77224 8.69912 1.90241 8.56899L5.00004 5.47133L8.09764 8.56899C8.22784 8.69912 8.43891 8.69912 8.56911 8.56899C8.69924 8.43879 8.69924 8.22772 8.56911 8.09752L5.47145 4.99992L8.56911 1.90229Z" fill="#828282"/>
</svg>
