<svg width="8" height="8" viewBox="0 0 8 8" fill="none" xmlns="http://www.w3.org/2000/svg">
<path fill-rule="evenodd" clip-rule="evenodd" d="M7.56911 0.902287C7.69924 0.772114 7.69924 0.56106 7.56911 0.430887C7.43891 0.300707 7.22784 0.300707 7.09764 0.430887L4.00004 3.52851L0.902409 0.430887C0.772236 0.300707 0.561182 0.300707 0.431009 0.430887C0.300829 0.56106 0.300829 0.772114 0.431009 0.902287L3.52864 3.99992L0.431009 7.09752C0.300829 7.22772 0.300829 7.43879 0.431009 7.56899C0.561182 7.69912 0.772236 7.69912 0.902409 7.56899L4.00004 4.47133L7.09764 7.56899C7.22784 7.69912 7.43891 7.69912 7.56911 7.56899C7.69924 7.43879 7.69924 7.22772 7.56911 7.09752L4.47145 3.99992L7.56911 0.902287Z" fill="#8C8C8C"/>
</svg>
