<svg width="10" height="10" viewBox="0 0 10 10" fill="none" xmlns="http://www.w3.org/2000/svg">
<path fill-rule="evenodd" clip-rule="evenodd" d="M5.00018 0.584717C2.56173 0.584717 0.584961 2.56148 0.584961 4.99993C0.584961 7.43837 2.56172 9.41517 5.00018 9.41517C7.43866 9.41517 9.41539 7.43837 9.41539 4.99993C9.41539 2.56148 7.43859 0.584717 5.00018 0.584717ZM1.2183 4.99993C1.2183 2.91126 2.91151 1.21805 5.00018 1.21805C7.08886 1.21805 8.78206 2.91126 8.78206 4.99993C8.78206 7.08857 7.08886 8.78184 5.00018 8.78184C2.91151 8.78184 1.2183 7.08857 1.2183 4.99993ZM5.33346 3.00005C5.33346 2.81595 5.18422 2.66671 5.00012 2.66671C4.81603 2.66671 4.66679 2.81595 4.66679 3.00005V5.00005C4.66679 5.08845 4.70191 5.17324 4.76442 5.23575L6.09776 6.56909C6.22793 6.69924 6.43898 6.69924 6.56916 6.56909C6.69932 6.43891 6.69932 6.22785 6.56916 6.09768L5.33346 4.86198V3.00005Z" fill="#828282"/>
</svg>
