<svg width="10" height="10" viewBox="0 0 10 10" fill="none" xmlns="http://www.w3.org/2000/svg">
<path fill-rule="evenodd" clip-rule="evenodd" d="M8.56905 1.90229C8.69918 1.77211 8.69918 1.56106 8.56905 1.43089C8.43885 1.30071 8.22778 1.30071 8.09758 1.43089L4.99998 4.52851L1.90235 1.43089C1.77217 1.30071 1.56112 1.30071 1.43095 1.43089C1.30077 1.56106 1.30077 1.77211 1.43095 1.90229L4.52857 4.99992L1.43095 8.09752C1.30077 8.22772 1.30077 8.43879 1.43095 8.56899C1.56112 8.69912 1.77217 8.69912 1.90235 8.56899L4.99998 5.47133L8.09758 8.56899C8.22778 8.69912 8.43885 8.69912 8.56905 8.56899C8.69918 8.43879 8.69918 8.22772 8.56905 8.09752L5.47139 4.99992L8.56905 1.90229Z" fill="#8C8C8C"/>
</svg>
