<svg width="8" height="11" viewBox="0 0 8 11" fill="none" xmlns="http://www.w3.org/2000/svg">
<path fill-rule="evenodd" clip-rule="evenodd" d="M2.3999 0.800049C2.17899 0.800049 1.9999 0.979137 1.9999 1.20005C1.9999 1.42096 2.17899 1.60005 2.3999 1.60005H5.5999C5.82081 1.60005 5.9999 1.42096 5.9999 1.20005C5.9999 0.979137 5.82081 0.800049 5.5999 0.800049H2.3999ZM0.399902 2.80005C0.399902 2.57914 0.57899 2.40005 0.799902 2.40005H1.9999H5.9999H7.1999C7.42078 2.40005 7.5999 2.57914 7.5999 2.80005C7.5999 3.02096 7.42078 3.20005 7.1999 3.20005H6.7999V9.60005C6.7999 10.0419 6.44174 10.4 5.9999 10.4H1.9999C1.55808 10.4 1.1999 10.0419 1.1999 9.60005V3.20005H0.799902C0.57899 3.20005 0.399902 3.02096 0.399902 2.80005ZM1.9999 3.20005H5.9999V9.60005H1.9999V3.20005Z" fill="#828282"/>
</svg>
