<svg width="6" height="9" viewBox="0 0 6 9" fill="none" xmlns="http://www.w3.org/2000/svg">
<path fill-rule="evenodd" clip-rule="evenodd" d="M1.66667 0.666626C1.48257 0.666626 1.33333 0.815866 1.33333 0.999959C1.33333 1.18405 1.48257 1.33329 1.66667 1.33329H4.33333C4.51743 1.33329 4.66667 1.18405 4.66667 0.999959C4.66667 0.815866 4.51743 0.666626 4.33333 0.666626H1.66667ZM0 2.33329C0 2.1492 0.14924 1.99996 0.333333 1.99996H1.33333H4.66667H5.66667C5.85073 1.99996 6 2.1492 6 2.33329C6 2.51739 5.85073 2.66663 5.66667 2.66663H5.33333V7.99996C5.33333 8.36816 5.03487 8.66663 4.66667 8.66663H1.33333C0.965147 8.66663 0.666667 8.36816 0.666667 7.99996V2.66663H0.333333C0.14924 2.66663 0 2.51739 0 2.33329ZM1.33333 2.66663H4.66667V7.99996H1.33333V2.66663Z" fill="#8C8C8C"/>
</svg>
