<svg width="8" height="10" viewBox="0 0 8 10" fill="none" xmlns="http://www.w3.org/2000/svg">
<path fill-rule="evenodd" clip-rule="evenodd" d="M3.99995 0.699951C4.16564 0.699951 4.29995 0.834264 4.29995 0.999951V5.60902L5.78785 4.12115C5.90499 4.00399 6.09492 4.00399 6.21205 4.12115C6.32925 4.23831 6.32925 4.42826 6.21205 4.54542L4.21209 6.54542C4.09493 6.66257 3.90498 6.66257 3.78782 6.54542L1.78782 4.54542C1.67066 4.42826 1.67066 4.23831 1.78782 4.12115C1.90498 4.00399 2.09493 4.00399 2.21209 4.12115L3.69995 5.60902V0.999951C3.69995 0.834264 3.83427 0.699951 3.99995 0.699951ZM0.666585 6.66662C0.850679 6.66662 0.999919 6.81589 0.999919 6.99996V7.99996C0.999919 8.36922 1.29702 8.66662 1.66415 8.66662H6.33405C6.70185 8.66662 6.99992 8.36849 6.99992 7.99996V6.99996C6.99992 6.81589 7.14919 6.66662 7.33325 6.66662C7.51732 6.66662 7.66659 6.81589 7.66659 6.99996V7.99996C7.66659 8.73602 7.07072 9.33329 6.33405 9.33329H1.66415C0.926712 9.33329 0.333252 8.73529 0.333252 7.99996V6.99996C0.333252 6.81589 0.482492 6.66662 0.666585 6.66662Z" fill="#E2E2E2"/>
</svg>
