<svg width="9" height="10" viewBox="0 0 9 10" fill="none" xmlns="http://www.w3.org/2000/svg">
<path fill-rule="evenodd" clip-rule="evenodd" d="M0.99998 0.666748C0.631786 0.666748 0.333313 0.965228 0.333313 1.33341V8.66675C0.333313 9.03495 0.631793 9.33342 0.99998 9.33342H5.99998C6.18405 9.33342 6.33331 9.18415 6.33331 9.00008C6.33331 8.81602 6.18405 8.66675 5.99998 8.66675H0.99998V1.33341H5.99998C6.18405 1.33341 6.33331 1.18417 6.33331 1.00008C6.33331 0.815988 6.18405 0.666748 5.99998 0.666748H0.99998ZM7.40238 3.26438C7.27218 3.1342 7.06111 3.1342 6.93091 3.26438C6.80078 3.39455 6.80078 3.60561 6.93091 3.73578L7.86191 4.66675H3.33331C3.14922 4.66675 2.99998 4.81599 2.99998 5.00008C2.99998 5.18418 3.14922 5.33342 3.33331 5.33342H7.86191L6.93091 6.26438C6.80078 6.39456 6.80078 6.60561 6.93091 6.73581C7.06111 6.86595 7.27218 6.86595 7.40238 6.73581L8.90238 5.23578C9.03251 5.10561 9.03251 4.89456 8.90238 4.76438L7.40238 3.26438Z" fill="#000000"/>
</svg>
