<svg width="8" height="10" viewBox="0 0 8 10" fill="none" xmlns="http://www.w3.org/2000/svg">
<path fill-rule="evenodd" clip-rule="evenodd" d="M1.79992 0.666626H1.78486C1.5795 0.666618 1.40237 0.666612 1.25731 0.680406C1.10376 0.695006 0.952086 0.72738 0.810752 0.813986C0.676199 0.89644 0.563072 1.00957 0.480612 1.14413C0.394006 1.28546 0.361632 1.43713 0.347032 1.59069C0.333239 1.73574 0.333246 1.91286 0.333252 2.11821V2.13329V7.86663V7.88169C0.333246 8.08709 0.333239 8.26416 0.347032 8.40923C0.361632 8.56276 0.394006 8.71443 0.480612 8.85576C0.563072 8.99036 0.676199 9.10349 0.810752 9.18596C0.952086 9.27256 1.10376 9.30489 1.25731 9.31949C1.40237 9.33329 1.5795 9.33329 1.78486 9.33329H1.79992H6.19992H6.21499C6.42032 9.33329 6.59745 9.33329 6.74252 9.31949C6.89605 9.30489 7.04772 9.27256 7.18905 9.18596C7.32365 9.10349 7.43679 8.99036 7.51925 8.85576C7.60585 8.71443 7.63819 8.56276 7.65279 8.40923C7.66658 8.26416 7.66659 8.08703 7.66659 7.88169V7.86663V2.13329V2.11823C7.66659 1.91287 7.66658 1.73575 7.65279 1.59069C7.63819 1.43713 7.60585 1.28546 7.51925 1.14413C7.43679 1.00957 7.32365 0.89644 7.18905 0.813986C7.04772 0.72738 6.89605 0.695006 6.74252 0.680406C6.59745 0.666612 6.42032 0.666618 6.21499 0.666626H6.19992H1.79992ZM1.15909 1.38241C1.17807 1.37078 1.21567 1.35404 1.32042 1.34408C1.43013 1.33365 1.57524 1.33329 1.79992 1.33329H6.19992C6.42459 1.33329 6.56972 1.33365 6.67945 1.34408C6.78419 1.35404 6.82179 1.37078 6.84079 1.38241C6.88559 1.4099 6.92332 1.44761 6.95079 1.49246C6.96245 1.51144 6.97919 1.54904 6.98912 1.65379C6.99959 1.76351 6.99992 1.90861 6.99992 2.13329V7.86663C6.99992 8.09129 6.99959 8.23643 6.98912 8.34616C6.97919 8.45089 6.96245 8.48849 6.95079 8.50749C6.92332 8.55229 6.88559 8.59003 6.84079 8.61749C6.82179 8.62916 6.78419 8.64589 6.67945 8.65583C6.56972 8.66629 6.42459 8.66663 6.19992 8.66663H1.79992C1.57524 8.66663 1.43013 8.66629 1.32042 8.65583C1.21567 8.64589 1.17807 8.62916 1.15909 8.61749C1.11423 8.59003 1.07653 8.55229 1.04904 8.50749C1.03741 8.48849 1.02067 8.45089 1.01071 8.34616C1.00027 8.23643 0.999919 8.09129 0.999919 7.86663V2.13329C0.999919 1.90861 1.00027 1.76351 1.01071 1.65379C1.02067 1.54904 1.03741 1.51144 1.04904 1.49246C1.07653 1.44761 1.11423 1.4099 1.15909 1.38241ZM2.33325 6.66663C2.14916 6.66663 1.99992 6.81589 1.99992 6.99996C1.99992 7.18403 2.14916 7.33329 2.33325 7.33329H4.33325C4.51735 7.33329 4.66659 7.18403 4.66659 6.99996C4.66659 6.81589 4.51735 6.66663 4.33325 6.66663H2.33325ZM1.99992 4.99996C1.99992 4.81587 2.14916 4.66663 2.33325 4.66663H5.66659C5.85065 4.66663 5.99992 4.81587 5.99992 4.99996C5.99992 5.18405 5.85065 5.33329 5.66659 5.33329H2.33325C2.14916 5.33329 1.99992 5.18405 1.99992 4.99996ZM2.33325 2.66663C2.14916 2.66663 1.99992 2.81587 1.99992 2.99996C1.99992 3.18405 2.14916 3.33329 2.33325 3.33329H5.66659C5.85065 3.33329 5.99992 3.18405 5.99992 2.99996C5.99992 2.81587 5.85065 2.66663 5.66659 2.66663H2.33325Z" fill="#E2E2E2"/>
</svg>
