<svg width="10" height="10" viewBox="0 0 10 10" fill="none" xmlns="http://www.w3.org/2000/svg">
<path fill-rule="evenodd" clip-rule="evenodd" d="M4.99994 0.584473C2.56148 0.584473 0.584717 2.56124 0.584717 4.99969C0.584717 7.43814 2.56148 9.41494 4.99994 9.41494C7.4384 9.41494 9.41513 7.43814 9.41513 4.99969C9.41513 2.56124 7.4384 0.584473 4.99994 0.584473ZM1.21805 4.99969C1.21805 2.91102 2.91126 1.2178 4.99994 1.2178C7.0886 1.2178 8.7818 2.91102 8.7818 4.99969C8.7818 7.08835 7.0886 8.78161 4.99994 8.78161C2.91126 8.78161 1.21805 7.08835 1.21805 4.99969Z" fill="#E10000"/>
<path d="M5.00032 2.52429C4.74554 2.52429 4.54179 2.73603 4.55158 2.99061L4.65417 5.65788C4.66132 5.84387 4.81418 5.99097 5.00032 5.99097C5.18645 5.99097 5.3393 5.84387 5.34646 5.65788L5.44905 2.99062C5.45884 2.73603 5.2551 2.52429 5.00032 2.52429Z" fill="#E10000"/>
<path d="M5.00024 7.48387C5.27638 7.48387 5.50024 7.26001 5.50024 6.98387C5.50024 6.70774 5.27638 6.48387 5.00024 6.48387C4.7241 6.48387 4.50024 6.70774 4.50024 6.98387C4.50024 7.26001 4.7241 7.48387 5.00024 7.48387Z" fill="#E10000"/>
</svg>
