<svg width="18" height="18" viewBox="0 0 18 18" fill="none" xmlns="http://www.w3.org/2000/svg">
<g clip-path="url(#clip0_1015_9582)">
<path fill-rule="evenodd" clip-rule="evenodd" d="M8.99997 0C4.02943 0 0 4.02943 0 8.99996C0 13.9705 4.02943 18 8.99997 18C13.9705 18 17.9999 13.9705 17.9999 8.99996C17.9999 4.02943 13.9705 0 8.99997 0ZM1.29098 8.99996C1.29098 4.74242 4.74242 1.29098 8.99997 1.29098C13.2575 1.29098 16.7089 4.74242 16.7089 8.99996C16.7089 13.2575 13.2575 16.709 8.99997 16.709C4.74242 16.709 1.29098 13.2575 1.29098 8.99996ZM9.00014 4.24409C9.37539 4.24409 9.6796 4.5483 9.6796 4.92355V8.32088H13.0769C13.4522 8.32088 13.7564 8.62509 13.7564 9.00035C13.7564 9.3756 13.4522 9.67981 13.0769 9.67981H9.6796V13.0771C9.6796 13.4523 9.37539 13.7566 9.00014 13.7566C8.62488 13.7566 8.32067 13.4523 8.32067 13.0771V9.67981H4.92335C4.54809 9.67981 4.24388 9.3756 4.24388 9.00035C4.24388 8.62509 4.54809 8.32088 4.92335 8.32088H8.32067V4.92355C8.32067 4.5483 8.62488 4.24409 9.00014 4.24409Z" fill="#000000"/>
</g>
<defs>
<clipPath id="clip0_1015_9582">
<rect width="18" height="18" fill="white"/>
</clipPath>
</defs>
</svg>
