<svg width="18" height="18" viewBox="0 0 18 18" fill="none" xmlns="http://www.w3.org/2000/svg">
<path fill-rule="evenodd" 
clip-rule="evenodd"
 d="M9.00022 -0.00012207C4.02967 -0.00012207 0.000244141 4.02931 0.000244141 8.99984C0.000244141 13.9704 4.02967 17.9999 9.00022 17.9999C13.9708 17.9999 18.0001 13.9704 18.0001 8.99984C18.0001 4.02931 13.9708 -0.00012207 9.00022 -0.00012207ZM1.29122 8.99984C1.29122 4.7423 4.74266 1.29086 9.00022 1.29086C13.2577 1.29086 16.7091 4.7423 16.7091 8.99984C16.7091 13.2573 13.2577 16.7089 9.00022 16.7089C4.74266 16.7089 1.29122 13.2573 1.29122 8.99984ZM9.00038 4.24397C9.37564 4.24397 9.67985 4.54818 9.67985 4.92343V8.32076H13.0771C13.4525 8.32076 13.7566 8.62497 13.7566 9.00022C13.7566 9.37548 13.4525 9.67969 13.0771 9.67969H9.67985V13.077C9.67985 13.4522 9.37564 13.7565 9.00038 13.7565C8.62513 13.7565 8.32092 13.4522 8.32092 13.077V9.67969H4.92359C4.54833 9.67969 4.24412 9.37548 4.24412 9.00022C4.24412 8.62497 4.54833 8.32076 4.92359 8.32076H8.32092V4.92343C8.32092 4.54818 8.62513 4.24397 9.00038 4.24397Z" fill="#8C8C8C"/>
</svg>
