<svg width="10" height="10" viewBox="0 0 10 10" fill="none" xmlns="http://www.w3.org/2000/svg">
<path fill-rule="evenodd" clip-rule="evenodd" d="M8.6667 4.99999C8.6667 3.10972 7.1935 1.23332 4.90004 1.23332C3.04782 1.23332 2.13236 2.60427 1.74222 3.33333H2.90002C3.08409 3.33333 3.23336 3.48257 3.23336 3.66667C3.23336 3.85076 3.08409 4 2.90002 4H0.900025C0.715959 4 0.566691 3.85076 0.566691 3.66667V1.66667C0.566691 1.48257 0.715959 1.33333 0.900025 1.33333C1.08409 1.33333 1.23336 1.48257 1.23336 1.66667V2.87545C1.70302 2.04751 2.78942 0.56665 4.90004 0.56665C7.60858 0.56665 9.33337 2.79025 9.33337 4.99999C9.33337 7.20973 7.60858 9.43333 4.90004 9.43333C3.60415 9.43333 2.52522 8.92053 1.75702 8.13893C1.34569 7.7204 1.02449 7.226 0.805491 6.6938C0.735425 6.52357 0.816626 6.32877 0.986825 6.25871C1.15709 6.18864 1.35189 6.26985 1.42196 6.44009C1.60916 6.895 1.88329 7.31633 2.23249 7.6716C2.88036 8.33087 3.79 8.76667 4.90004 8.76667C7.1935 8.76667 8.6667 6.89027 8.6667 4.99999Z" fill="#8C8C8C"/>
</svg>
