<svg width="10" height="10" viewBox="0 0 10 10" fill="none" xmlns="http://www.w3.org/2000/svg">
<g clip-path="url(#clip0_1018_9722)">
<path fill-rule="evenodd" clip-rule="evenodd" d="M8.66683 4.99999C8.66683 3.10972 7.19362 1.23332 4.90016 1.23332C3.04795 1.23332 2.13248 2.60427 1.74235 3.33333H2.90015C3.08421 3.33333 3.23348 3.48257 3.23348 3.66667C3.23348 3.85076 3.08421 4 2.90015 4H0.900147C0.716081 4 0.566813 3.85076 0.566813 3.66667V1.66667C0.566813 1.48257 0.716081 1.33333 0.900147 1.33333C1.08421 1.33333 1.23348 1.48257 1.23348 1.66667V2.87545C1.70315 2.04751 2.78955 0.56665 4.90016 0.56665C7.60871 0.56665 9.3335 2.79025 9.3335 4.99999C9.3335 7.20973 7.60871 9.43333 4.90016 9.43333C3.60427 9.43333 2.52535 8.92053 1.75715 8.13893C1.34581 7.7204 1.02461 7.226 0.805614 6.6938C0.735547 6.52357 0.816748 6.32877 0.986947 6.25871C1.15721 6.18864 1.35201 6.26985 1.42208 6.44009C1.60928 6.895 1.88341 7.31633 2.23261 7.6716C2.88048 8.33087 3.79012 8.76667 4.90016 8.76667C7.19362 8.76667 8.66683 6.89027 8.66683 4.99999Z" fill="#828282"/>
</g>
<defs>
<clipPath id="clip0_1018_9722">
<rect width="10" height="10" fill="white"/>
</clipPath>
</defs>
</svg>
