<svg width="18" height="18" viewBox="0 0 18 18" fill="none" xmlns="http://www.w3.org/2000/svg">
<path d="M5.75 6.91668L7.5 8.66668L13.3333 2.83334" stroke="#828282" stroke-width="2" stroke-linecap="round" stroke-linejoin="round"/>
<path d="M12.75 7.5V11.5833C12.75 11.8928 12.6271 12.1895 12.4083 12.4083C12.1895 12.6271 11.8928 12.75 11.5833 12.75H3.41667C3.10725 12.75 2.8105 12.6271 2.59171 12.4083C2.37292 12.1895 2.25 11.8928 2.25 11.5833V3.41667C2.25 3.10725 2.37292 2.8105 2.59171 2.59171C2.8105 2.37292 3.10725 2.25 3.41667 2.25H9.83333" stroke="#828282" stroke-width="2" stroke-linecap="round" stroke-linejoin="round"/>
<path d="M15 8.625V13.5833C15 13.9591 14.8507 14.3194 14.585 14.5851C14.3194 14.8507 13.959 15 13.5833 15H3.66663" stroke="#828282" stroke-width="2" stroke-linecap="round" stroke-linejoin="round"/>
</svg>
