<svg width="10" height="10" viewBox="0 0 10 10" fill="none" xmlns="http://www.w3.org/2000/svg">
<path fill-rule="evenodd" clip-rule="evenodd" d="M1.26881 4.86449C1.26881 6.89398 2.74028 8.27644 4.39263 8.56258C4.58171 8.59531 4.70845 8.77511 4.6757 8.96424C4.64296 9.15331 4.46315 9.28004 4.27407 9.24731C2.33295 8.91118 0.573898 7.27511 0.573898 4.86449C0.573898 3.84003 1.03998 3.03494 1.58426 2.42249C1.97417 1.98376 2.42023 1.62754 2.77898 1.35466H1.68804C1.50394 1.35466 1.3547 1.20541 1.3547 1.02132C1.3547 0.837228 1.50394 0.687988 1.68804 0.687988H3.68804C3.87213 0.687988 4.02137 0.837228 4.02137 1.02132V3.02132C4.02137 3.20542 3.87213 3.35466 3.68804 3.35466C3.50395 3.35466 3.35471 3.20542 3.35471 3.02132V1.79094L3.3537 1.7917C2.97272 2.07904 2.50706 2.43023 2.1037 2.88411C1.62735 3.42011 1.26881 4.06767 1.26881 4.86449ZM8.67394 5.13545C8.67394 3.12741 7.23367 1.75304 5.60257 1.44683C5.41396 1.41143 5.28977 1.22983 5.32518 1.04123C5.36059 0.852628 5.54218 0.728442 5.73078 0.763848C7.64694 1.12358 9.3688 2.75067 9.3688 5.13545C9.3688 6.15989 8.90274 6.96498 8.35847 7.57744C7.96854 8.01618 7.52247 8.37238 7.16374 8.64531H8.25474C8.43881 8.64531 8.58807 8.79451 8.58807 8.97864C8.58807 9.16271 8.43881 9.31198 8.25474 9.31198H6.2547C6.07061 9.31198 5.92137 9.16271 5.92137 8.97864V6.97864C5.92137 6.79451 6.07061 6.64528 6.2547 6.64528C6.4388 6.64528 6.58804 6.79451 6.58804 6.97864V8.20898L6.58909 8.20818C6.97007 7.92084 7.43567 7.56971 7.83901 7.11584C8.31541 6.57982 8.67394 5.93227 8.67394 5.13545Z" fill="#8C8C8C"/>
</svg>
