<svg width="27" height="28" viewBox="0 0 27 28" fill="none" xmlns="http://www.w3.org/2000/svg">
<g clip-path="url(#clip0_1154_1120)">
<path d="M22.5 24.4581V22.162C22.5 20.944 22.0259 19.776 21.182 18.9148C20.3381 18.0535 19.1935 17.5697 18 17.5697H9C7.80653 17.5697 6.66193 18.0535 5.81802 18.9148C4.97411 19.776 4.5 20.944 4.5 22.162V24.4581" stroke="#E2E2E2" stroke-width="2" stroke-linecap="round" stroke-linejoin="round"/>
<path d="M13.5 12.9774C15.9853 12.9774 18 10.9214 18 8.38513C18 5.84888 15.9853 3.79285 13.5 3.79285C11.0147 3.79285 9 5.84888 9 8.38513C9 10.9214 11.0147 12.9774 13.5 12.9774Z" stroke="#E2E2E2" stroke-width="2" stroke-linecap="round" stroke-linejoin="round"/>
</g>
<defs>
<clipPath id="clip0_1154_1120">
<rect width="21" height="24" fill="white" transform="translate(3 2.34863)"/>
</clipPath>
</defs>
</svg>
