<svg width="8" height="8" viewBox="0 0 8 8" fill="none" xmlns="http://www.w3.org/2000/svg">
<path fill-rule="evenodd" clip-rule="evenodd" d="M7.56908 0.902363C7.69921 0.77219 7.69921 0.561137 7.56908 0.430963C7.43888 0.300783 7.22781 0.300783 7.09761 0.430963L4.00001 3.52859L0.902378 0.430963C0.772205 0.300783 0.561152 0.300783 0.430978 0.430963C0.300799 0.561137 0.300799 0.77219 0.430978 0.902363L3.5286 4L0.430978 7.0976C0.300799 7.2278 0.300799 7.43886 0.430978 7.56906C0.561152 7.6992 0.772205 7.6992 0.902378 7.56906L4.00001 4.4714L7.09761 7.56906C7.22781 7.6992 7.43888 7.6992 7.56908 7.56906C7.69921 7.43886 7.69921 7.2278 7.56908 7.0976L4.47142 4L7.56908 0.902363Z" fill="#828282"/>
</svg>
