<svg width="9" height="9" viewBox="0 0 9 9" fill="none" xmlns="http://www.w3.org/2000/svg">
<path fill-rule="evenodd" clip-rule="evenodd" d="M6.9024 0.76432C6.7722 0.634143 6.56113 0.634143 6.431 0.76432L1.47636 5.71893C1.41639 5.7789 1.36842 5.84976 1.335 5.92772L0.36029 8.20202C0.306597 8.32735 0.33459 8.47269 0.43097 8.56909C0.52735 8.66542 0.672697 8.69342 0.797977 8.63975L3.07231 7.66502C3.15026 7.63162 3.22113 7.58362 3.2811 7.52369L8.23573 2.56905C8.36586 2.43888 8.36586 2.22783 8.23573 2.09765L6.9024 0.76432ZM1.94777 6.19033L6.66666 1.47143L7.5286 2.33335L2.8097 7.05229L1.81282 7.47949L1.52054 7.18722L1.94777 6.19033Z" fill="#828282"/>
</svg>
