<svg width="9" height="9" viewBox="0 0 9 9" fill="none" xmlns="http://www.w3.org/2000/svg">
<path fill-rule="evenodd" clip-rule="evenodd" d="M6.90232 0.764259C6.77212 0.634082 6.56105 0.634082 6.43092 0.764259L1.47629 5.71887C1.41631 5.77884 1.36834 5.8497 1.33493 5.92766L0.360214 8.20196C0.306521 8.32729 0.334514 8.47263 0.430894 8.56903C0.527274 8.66536 0.672621 8.69336 0.797901 8.63969L3.07223 7.66496C3.15019 7.63156 3.22105 7.58356 3.28103 7.52363L8.23565 2.56899C8.36579 2.43882 8.36579 2.22777 8.23565 2.09759L6.90232 0.764259ZM1.94769 6.19027L6.66659 1.47137L7.52852 2.33329L2.80962 7.05223L1.81275 7.47943L1.52046 7.18716L1.94769 6.19027Z" fill="#E2E2E2"/>
</svg>
