<svg width="10" height="10" viewBox="0 0 10 10" fill="none" xmlns="http://www.w3.org/2000/svg">
<path fill-rule="evenodd" clip-rule="evenodd" d="M4.99994 0.584595C2.56148 0.584595 0.584717 2.56136 0.584717 4.99981C0.584717 7.43827 2.56148 9.41507 4.99994 9.41507C7.4384 9.41507 9.41513 7.43827 9.41513 4.99981C9.41513 2.56136 7.4384 0.584595 4.99994 0.584595ZM1.21805 4.99981C1.21805 2.91114 2.91126 1.21793 4.99994 1.21793C7.0886 1.21793 8.7818 2.91114 8.7818 4.99981C8.7818 7.08847 7.0886 8.78173 4.99994 8.78173C2.91126 8.78173 1.21805 7.08847 1.21805 4.99981Z" fill="#E10000"/>
<path d="M5.00032 2.52441C4.74554 2.52441 4.54179 2.73615 4.55158 2.99073L4.65417 5.658C4.66132 5.84399 4.81418 5.99109 5.00032 5.99109C5.18645 5.99109 5.3393 5.84399 5.34646 5.658L5.44905 2.99074C5.45884 2.73615 5.2551 2.52441 5.00032 2.52441Z" fill="#E10000"/>
<path d="M5.00024 7.48399C5.27638 7.48399 5.50024 7.26013 5.50024 6.98399C5.50024 6.70786 5.27638 6.48399 5.00024 6.48399C4.7241 6.48399 4.50024 6.70786 4.50024 6.98399C4.50024 7.26013 4.7241 7.48399 5.00024 7.48399Z" fill="#E10000"/>
</svg>
