<svg width="10" height="10" viewBox="0 0 10 10" fill="none" xmlns="http://www.w3.org/2000/svg">
<path fill-rule="evenodd" clip-rule="evenodd" d="M3.66667 0.666687C3.48257 0.666687 3.33333 0.815927 3.33333 1.00002C3.33333 1.18411 3.48257 1.33335 3.66667 1.33335H6.33333C6.51743 1.33335 6.66667 1.18411 6.66667 1.00002C6.66667 0.815927 6.51743 0.666687 6.33333 0.666687H3.66667ZM2 2.33335C2 2.14926 2.14924 2.00002 2.33333 2.00002H3.33333H6.66667H7.66667C7.85073 2.00002 8 2.14926 8 2.33335C8 2.51745 7.85073 2.66669 7.66667 2.66669H7.33333V8.00002C7.33333 8.36822 7.03487 8.66669 6.66667 8.66669H3.33333C2.96515 8.66669 2.66667 8.36822 2.66667 8.00002V2.66669H2.33333C2.14924 2.66669 2 2.51745 2 2.33335ZM3.33333 2.66669H6.66667V8.00002H3.33333V2.66669Z" fill="#828282"/>
</svg>
