<svg width="8" height="8" viewBox="0 0 8 8" fill="none" xmlns="http://www.w3.org/2000/svg">
<path fill-rule="evenodd" clip-rule="evenodd" d="M2.2357 0.430948C2.36588 0.561121 2.36588 0.772175 2.2357 0.902348L1.4714 1.66665H5C6.65686 1.66665 8 3.00979 8 4.66665C8 6.32351 6.65686 7.66665 5 7.66665H2.33333C2.14924 7.66665 2 7.51738 2 7.33331C2 7.14925 2.14924 6.99998 2.33333 6.99998H5C6.28866 6.99998 7.33333 5.95531 7.33333 4.66665C7.33333 3.37798 6.28866 2.33331 5 2.33331H1.4714L2.2357 3.09761C2.36588 3.22779 2.36588 3.43884 2.2357 3.56901C2.10552 3.69919 1.89447 3.69919 1.7643 3.56901L0.430963 2.23568C0.300783 2.10551 0.300783 1.89445 0.430963 1.76428L1.7643 0.430948C1.89447 0.300768 2.10552 0.300768 2.2357 0.430948Z" fill="#000000"/>
</svg>
