<svg width="8" height="8" viewBox="0 0 8 8" fill="none" xmlns="http://www.w3.org/2000/svg">
<path fill-rule="evenodd" clip-rule="evenodd" d="M2.23562 0.431009C2.3658 0.561182 2.3658 0.772236 2.23562 0.902409L1.47133 1.66671H4.99992C6.65679 1.66671 7.99992 3.00986 7.99992 4.66671C7.99992 6.32358 6.65679 7.66671 4.99992 7.66671H2.33325C2.14916 7.66671 1.99992 7.51744 1.99992 7.33338C1.99992 7.14931 2.14916 7.00004 2.33325 7.00004H4.99992C6.28859 7.00004 7.33325 5.95538 7.33325 4.66671C7.33325 3.37804 6.28859 2.33338 4.99992 2.33338H1.47133L2.23562 3.09768C2.3658 3.22785 2.3658 3.4389 2.23562 3.56908C2.10545 3.69926 1.89439 3.69926 1.76422 3.56908L0.430887 2.23574C0.300707 2.10557 0.300707 1.89452 0.430887 1.76434L1.76422 0.431009C1.89439 0.300829 2.10545 0.300829 2.23562 0.431009Z" fill="#8C8C8C"/>
</svg>
