<svg width="20" height="20" viewBox="0 0 20 20" fill="none" xmlns="http://www.w3.org/2000/svg">
<path fill-rule="evenodd" clip-rule="evenodd" d="M14.0909 8.36364C14.0909 11.5267 11.5267 14.0909 8.36364 14.0909C5.20055 14.0909 2.63636 11.5267 2.63636 8.36364C2.63636 5.20055 5.20055 2.63636 8.36364 2.63636C11.5267 2.63636 14.0909 5.20055 14.0909 8.36364ZM12.9599 14.1169C11.7002 15.1248 10.1023 15.7273 8.36364 15.7273C4.29681 15.7273 1 12.4305 1 8.36364C1 4.29681 4.29681 1 8.36364 1C12.4305 1 15.7273 4.29681 15.7273 8.36364C15.7273 10.1023 15.1248 11.7002 14.1169 12.9599L18.7604 17.6032C19.0799 17.9228 19.0799 18.4409 18.7604 18.7604C18.4409 19.0799 17.9228 19.0799 17.6032 18.7604L12.9599 14.1169Z" fill="#8C8C8C"/>
</svg>
