<svg width="18" height="18" viewBox="0 0 18 18" fill="none" xmlns="http://www.w3.org/2000/svg">
<path fill-rule="evenodd" clip-rule="evenodd" d="M13.0909 7.36364C13.0909 10.5267 10.5267 13.0909 7.36364 13.0909C4.20055 13.0909 1.63636 10.5267 1.63636 7.36364C1.63636 4.20055 4.20055 1.63636 7.36364 1.63636C10.5267 1.63636 13.0909 4.20055 13.0909 7.36364ZM11.9599 13.1169C10.7002 14.1248 9.10229 14.7273 7.36364 14.7273C3.29681 14.7273 0 11.4305 0 7.36364C0 3.29681 3.29681 0 7.36364 0C11.4305 0 14.7273 3.29681 14.7273 7.36364C14.7273 9.10229 14.1248 10.7002 13.1169 11.9599L17.7604 16.6032C18.0799 16.9228 18.0799 17.4409 17.7604 17.7604C17.4409 18.0799 16.9228 18.0799 16.6032 17.7604L11.9599 13.1169Z" fill="#828282"/>
</svg>
